<?xml version="1.0" encoding="UTF-8"?><svg id="a" xmlns="http://www.w3.org/2000/svg" width="551.2" height="626.28" xmlns:xlink="http://www.w3.org/1999/xlink" viewBox="0 0 551.2 626.28"><defs><linearGradient id="b" x1="0" y1="313.14" x2="551.2" y2="313.14" gradientUnits="userSpaceOnUse"><stop offset="0" stop-color="#569a4b"/><stop offset="1" stop-color="#569a4b"/></linearGradient><linearGradient id="c" x1="1.64" y1="313.15" x2="549.52" y2="313.15" gradientUnits="userSpaceOnUse"><stop offset="0" stop-color="#3e863d"/><stop offset="1" stop-color="#6bbe47"/></linearGradient><linearGradient id="d" x1="3.1" y1="313.22" x2="548.1" y2="313.22" gradientUnits="userSpaceOnUse"><stop offset="0" stop-color="#6bbe47"/><stop offset="1" stop-color="#3e863d"/></linearGradient></defs><path d="M0,156.86v305.96c0,2.91,1.54,5.6,4.06,7.06l266.32,155.29c2.54,1.48,5.68,1.48,8.22,0l268.53-155.75c2.52-1.46,4.07-4.16,4.07-7.07V156.88c0-2.97-1.61-5.71-4.21-7.15L278.46,1.02c-2.47-1.37-5.48-1.36-7.94.01L4.19,149.72c-2.59,1.44-4.19,4.17-4.19,7.14Z" fill="url(#b)"/><path d="M3.85,469.76l266.8,155.57c2.12,1.24,4.84.52,6.08-1.6l272.2-467.73c1.25-2.15.49-4.92-1.69-6.12L278.28.92c-2.11-1.17-4.77-.44-5.99,1.64L2.25,463.67c-1.24,2.12-.53,4.85,1.6,6.09Z" fill="url(#c)"/><path d="M4.21,159.46l266.12,461.01c2.29,3.97,7.38,5.33,11.35,3.03l262.29-152.13c3.99-2.31,5.33-7.43,2.98-11.4L278.6,5.9c-2.29-3.88-7.26-5.22-11.19-3.02L7.35,148.07c-4.04,2.26-5.46,7.38-3.14,11.39Z" fill="url(#d)"/></svg>