<?xml version="1.0" encoding="UTF-8"?><svg id="a" xmlns="http://www.w3.org/2000/svg" width="512" height="499" viewBox="0 0 512 499"><path d="M418.35,0C431.86,0,445.3,2.52,457.71,7.87c8.14,3.51,15.79,8.06,22.81,14.1,8.71,7.49,15.35,16.21,20.43,25.83,7.45,14.1,11.04,29.93,11.04,45.88v312.51c0,11.89-1.92,23.76-6.16,34.87-.03.07-.05.13-.08.2-10.04,25.95-32.34,46.14-59,54-.05.01-.1.03-.15.04-8.95,2.6-18.27,3.69-27.59,3.69H92.8c-11.89,0-23.76-1.92-34.87-6.16-.07-.03-.13-.05-.2-.08-23.32-9.03-43.01-28.77-51.76-52.24-.02-.06-.05-.13-.07-.19C1.84,429.3,0,417.57,0,405.81V93.54c0-11.87,1.85-23.72,5.9-34.88.02-.06.05-.13.07-.19C14.4,35.58,33.73,15.97,56.32,6.82c1.85-.75,3.73-1.39,5.61-1.97C72.79,1.53,84.12,0,95.48,0h322.87ZM162,281c36.23,3.21,81.71-.97,103.03-34.47,16.05-25.23,15.41-64.36-2.61-88.44-27.98-37.39-80.75-31.53-121.87-30.04-6.69.24-17.09-1.13-23.04-.04-1.12.21-1.87.51-2.5,1.5v222l1.5,1.5h43c.23,0,2.5-3.12,2.5-3.5v-68.5ZM299,305.5v39c0,2.96,10.07,6.34,12.78,7.22,37.51,12.09,107.47,8.02,111.26-43.17,2.4-32.46-16.42-44.31-42.69-56.4-7.85-3.61-48.27-15.18-33.42-29.71,9.44-9.23,41.77-2.28,53.58,1.54,4.53,1.47,8.16,5.26,13.34,3.88,1.53-.95,1.57-30.19,1.19-34.41-.74-8.25-7.98-9.22-15.21-10.79-33.28-7.27-86.25-4.41-97.89,34.79-8.44,28.41,5.41,48.47,29.38,61.72,11.04,6.11,33.65,12.1,41.61,19.39,10.12,9.26,1.09,17.73-9.7,19.18-20.5,2.76-44.28-3.34-61.92-13.6l-2.32,1.36Z" fill="#001e36"/><path d="M162,281v68.5c0,.38-2.27,3.5-2.5,3.5h-43l-1.5-1.5v-222c.63-.99,1.38-1.29,2.5-1.5,5.95-1.09,16.35.28,23.04.04,41.13-1.49,93.9-7.35,121.87,30.04,18.02,24.08,18.67,63.21,2.61,88.44-21.32,33.5-66.8,37.69-103.03,34.47ZM162,241h30.5c6.33,0,21.38-6.21,26.51-10.49,17.35-14.46,14.2-46.37-6.64-56.39-2.71-1.3-14.45-5.12-16.88-5.12h-33.5v72Z" fill="#30a6fd"/><path d="M299,305.5l2.32-1.36c17.64,10.26,41.42,16.36,61.92,13.6,10.78-1.45,19.82-9.93,9.7-19.18-7.97-7.29-30.57-13.28-41.61-19.39-23.97-13.25-37.81-33.31-29.38-61.72,11.64-39.2,64.61-42.06,97.89-34.79,7.22,1.58,14.46,2.54,15.21,10.79.38,4.22.34,33.45-1.19,34.41-5.18,1.38-8.81-2.41-13.34-3.88-11.81-3.82-44.14-10.78-53.58-1.54-14.85,14.53,25.57,26.09,33.42,29.71,26.27,12.09,45.09,23.94,42.69,56.4-3.79,51.2-73.75,55.26-111.26,43.17-2.72-.88-12.78-4.25-12.78-7.22v-39Z" fill="#30a6fd"/><path d="M162,241v-72h33.5c2.43,0,14.16,3.82,16.88,5.12,20.83,10.01,23.99,41.92,6.64,56.39-5.13,4.27-20.18,10.49-26.51,10.49h-30.5Z" fill="#001e36"/></svg>