<?xml version="1.0" encoding="UTF-8"?><svg id="a" xmlns="http://www.w3.org/2000/svg" width="2045.98" height="1227.69" viewBox="0 0 2045.98 1227.69"><path d="M1055.99,0c156.9,6.92,274.16,62.32,386.53,168.84,80.03,75.86,148.36,170.9,263.44,193.41,103.44,20.23,191.61-9.76,269.05-77.96,26.38-23.23,48.78-50.34,70.98-77.45-25.2,104.47-73.4,208.46-152.46,282.8-116.49,109.52-288.41,138.01-443.9,119.75-141.98-16.67-242.19-75.74-343.15-172.71-73.43-70.53-139.3-158.78-244.28-182.57-125.75-28.49-228.28,17.61-312.7,108.59l-37.48,44.97c31.95-136.69,104.15-266.81,227.68-339.53C812.98,24.99,904.4,3.57,988.99,0h67Z" fill="#1ab0b9"/><path d="M1533,820.34c1.8-.24.91,2.18.74,3.23-7.49,46.01-37.92,117.14-60.23,158.65-100.81,187.52-276.69,252.99-483.03,244.79-157.74-6.27-271.84-58.92-385.02-165.85-70.54-66.65-141.26-159.67-237.48-188.37-81.74-24.38-165.51-15.09-238.67,28.3-51.55,30.58-92.41,73.53-129.32,120.07,31.2-130.99,98.57-257.05,214.47-330.75,92.73-58.97,196.47-76.47,304.98-75.88,156.48.85,276.05,46.89,391.56,150.32,77.59,69.49,152.81,174.46,255.99,204.85,55.82,16.44,118.34,17.25,173.99,0,78.75-24.41,144.18-84.2,192.02-149.37Z" fill="#1ab0b9"/></svg>