<?xml version="1.0" encoding="UTF-8"?><svg id="a" xmlns="http://www.w3.org/2000/svg" width="224.01" height="149.72" viewBox="0 0 224.01 149.72"><path d="M224.01,137.62c-.92,3.3-7.13,10.95-10.45,10.95h-87.11l13.44-22.9h54.26l-41.3-69.68-40.52,69c-8.37,12.4-21.81,22.3-37.11,23.62-14.6,1.27-48.63,1.69-62.78-.01-10.03-1.21-15.5-12.8-10.61-21.6C24.13,90.89,43.63,52.96,65.91,16.86,71.66,7.54,74.74-1.81,88.05.3c3.72.59,7.27,3.55,9.34,6.58l28.55,48.11c5.72-7.58,12.41-27.16,21.2-30.55,13.96-5.39,18.96,6.73,24.89,16.32,18.16,29.39,34.15,60.3,51.97,89.9v6.97ZM29.87,125.67h43.31c1.64,0,7.92-3.11,9.76-4.18,12.61-7.37,20.05-30.32,28.58-42.17l-26.4-47.24L29.87,125.67Z" fill="#02db82"/></svg>