<?xml version="1.0" encoding="UTF-8"?><svg id="a" xmlns="http://www.w3.org/2000/svg" width="368.83" height="462.42" viewBox="0 0 368.83 462.42"><path d="M260.51,446.04c-.64-1.83-2.24-2.07-3.74-2.76-28.37-13.02-52.96-27.13-76.26-48.24.23-.37-.23-1.62,0-2,48.47-79.67,7.53-183.53-83-207C100.95,113.73,137.69,44.64,194.02,0l2.52,1.52c35.43,43.76,73.14,85.78,107.95,130.04,23.69,30.12,45.14,58.1,56.52,95.48,26.86,88.19-17.61,181.53-100.5,219Z" fill="#dc2c00"/><path d="M96.51,186.04c-3.37,69.28,20.01,139.62,66.49,191.01,4.94,5.47,11.38,12.13,17.51,15.99-.23.38.23,1.63,0,2-6.86,10.92-19.55,24.78-29.53,32.97-10.49,8.61-22.18,15.37-34.47,21.03C19.97,410.7-27.01,299.25,16.05,203.07c1.56-3.49,6.02-13.38,8.43-15.57,6.23-5.66,42.43-6.13,51.52-5.45,6.61.49,14.06,2.39,20.51,3.99Z" fill="#fdc300"/><path d="M180.51,393.04c-6.13-3.85-12.57-10.52-17.51-15.99-46.47-51.39-69.85-121.73-66.49-191.01.31.08.69-.08,1,0,90.53,23.47,131.47,127.33,83,207Z" fill="#fe9000"/><path d="M260.51,446.04c-46.24,20.9-96.91,21.7-144,3,12.29-5.66,23.98-12.42,34.47-21.03,9.98-8.19,22.67-22.05,29.53-32.97,23.3,21.11,47.89,35.22,76.26,48.24,1.5.69,3.1.92,3.74,2.76Z" fill="#fe9000"/></svg>