<?xml version="1.0" encoding="UTF-8"?><svg id="a" xmlns="http://www.w3.org/2000/svg" width="384" height="384" viewBox="0 0 384 384"><path d="M119.02.69l-15.92,4.66c-44.26,18.26-53.79,77.16-16.62,108.14,9.94,8.28,21.51,12.3,34.04,14.97-66.58,6.45-77.96,104.37-10.12,124.79,3.68,1.11,7.62,1.15,10.87,2.98-61.04,6.72-78.29,87.57-25.39,118.37,42.68,24.85,93.4-5.03,96.49-53,1.35-20.99,0-44.81,0-66.12v-53.8c5.42,45.05,60.29,68.3,98.29,43.94,51.74-33.17,30.28-114.65-31.67-117.17,3.62-1.02,7.39-1.14,11.1-2,69.3-15.96,61.77-118.99-8.1-125.77h122.01v383.31H0V.69h119.02Z" fill="#fefefe"/><path d="M191.63.69c.85,1.24.74,2.65.78,4.07,1.23,40.76-.03,82.8-.03,123.7-21.49,0-43.72-.73-65.12,0-.71-1.2-3.74-1.22-4.49,0-.74.05-1.51-.07-2.25,0-12.52-2.67-24.1-6.68-34.04-14.97C49.31,82.51,58.84,23.6,103.1,5.35l15.92-4.66h72.61Z" fill="#fe4d12"/><path d="M261.99.69c69.88,6.78,77.4,109.81,8.1,125.77-3.71.85-7.48.98-11.1,2-3.34-.14-8.01-.34-11.23,0h-55.39c0-40.9,1.26-82.94.03-123.7-.04-1.42.07-2.83-.78-4.07,22.57,1.61,48.15-2.16,70.36,0Z" fill="#fe7361"/><path d="M120.51,128.46c.74-.07,1.5.05,2.25,0,1.49-.09,3,.05,4.49,0,21.4-.73,43.63,0,65.12,0v54.55c-.46,4.31-.51,14.42,0,18.68v53.8c-23.53,1.12-47.71-1.83-71.11.75-3.25-1.83-7.19-1.87-10.87-2.98-67.84-20.42-56.47-118.35,10.12-124.79Z" fill="#b659fe"/><path d="M192.37,255.48c0,21.31,1.35,45.13,0,66.12-3.09,47.97-53.82,77.85-96.49,53-52.9-30.8-35.65-111.66,25.39-118.37,23.41-2.58,47.58.37,71.11-.75Z" fill="#01ce7f"/><path d="M258.99,128.46c61.95,2.52,83.41,84,31.67,117.17-38,24.36-92.87,1.11-98.29-43.94-.51-4.26-.46-14.37,0-18.68,2.86-26.66,28.84-51.78,55.39-54.55,3.22-.34,7.89-.14,11.23,0Z" fill="#01bbfe"/><path d="M127.25,128.46c-1.49.05-3.01-.09-4.49,0,.75-1.22,3.78-1.2,4.49,0Z" fill="#fe7361"/><path d="M247.77,128.46c-26.55,2.77-52.53,27.88-55.39,54.55v-54.55h55.39Z" fill="#fcfdfe"/></svg>