<?xml version="1.0" encoding="UTF-8"?><svg id="a" xmlns="http://www.w3.org/2000/svg" width="292.04" height="315.35" viewBox="0 0 292.04 315.35"><path d="M171.15,39.39l16.48,8.6c3.71,1.94,7.71,3.24,11.85,3.85l18.39,2.72c12.13,1.8,22.61,9.41,28.06,20.39l8.27,16.64c1.86,3.75,4.34,7.15,7.33,10.08l13.27,13.01c8.75,8.58,12.76,20.9,10.72,32.99l-3.09,18.33c-.7,4.13-.7,8.34,0,12.46l3.09,18.33c2.04,12.09-1.96,24.41-10.72,32.99l-13.27,13.01c-2.99,2.93-5.46,6.34-7.33,10.08l-8.27,16.64c-5.46,10.98-15.94,18.59-28.06,20.39l-18.39,2.72c-4.14.61-8.14,1.91-11.85,3.85l-16.48,8.6c-10.87,5.67-23.82,5.67-34.68,0l-16.48-8.6c-3.71-1.94-7.71-3.24-11.85-3.85l-18.39-2.72c-12.13-1.8-22.61-9.41-28.06-20.39l-8.27-16.64c-1.86-3.75-4.34-7.15-7.33-10.08l-13.27-13.01c-8.75-8.58-12.76-20.9-10.72-32.99l3.09-18.33c.7-4.13.7-8.34,0-12.46l-3.09-18.33c-2.04-12.09,1.96-24.41,10.72-32.99l13.27-13.01c2.99-2.93,5.46-6.34,7.33-10.08l8.27-16.64c5.46-10.98,15.94-18.59,28.06-20.39l18.39-2.72c4.14-.61,8.14-1.91,11.85-3.85l16.48-8.6c10.87-5.67,23.82-5.67,34.68,0Z" fill="#e5ae4c"/><path d="M282.16,179.29c-.7-4.13-.7-8.34,0-12.46l3.09-18.33c2.04-12.09-1.96-24.41-10.72-32.99l-10.99-10.77c.67,4.04.7,8.21,0,12.35l-3.09,18.33c-.7,4.13-.7,8.34,0,12.46l3.09,18.33c2.04,12.09-1.96,24.41-10.72,32.99l-13.27,13.01c-2.99,2.93-5.46,6.34-7.33,10.08l-8.27,16.64c-5.46,10.98-15.94,18.59-28.06,20.39l-18.39,2.72c-4.14.61-8.14,1.91-11.85,3.85l-16.48,8.6c-10.87,5.67-23.82,5.67-34.68,0l-16.48-8.6c-3.71-1.94-7.71-3.24-11.85-3.85l-18.39-2.72c-5.23-.77-10.15-2.64-14.5-5.38l8.15,16.4c5.46,10.98,15.94,18.59,28.06,20.39l18.39,2.72c4.14.61,8.14,1.91,11.85,3.85l16.48,8.6c10.87,5.67,23.82,5.67,34.68,0l16.48-8.6c3.71-1.94,7.71-3.24,11.85-3.85l18.39-2.72c12.13-1.8,22.61-9.41,28.06-20.39l8.27-16.64c1.86-3.75,4.34-7.15,7.33-10.08l13.27-13.01c8.75-8.58,12.76-20.9,10.72-32.99l-3.09-18.33Z" fill="#e5972f"/><path d="M216.31,118.07c-3.83,4.14-10.79-2.8-24.23-2.48-10.43.25-20.21-.82-17.49-10.38,2.71-9.56,10.3-14.77,23.22-11.09s25.25,16.67,18.5,23.95Z" fill="#824d2f" stroke="#260710" stroke-miterlimit="10" stroke-width="6"/><path d="M168.05,184.15c-3.83,4.14-10.79-2.8-24.23-2.48-10.43.25-20.21-.82-17.49-10.38s10.3-14.77,23.22-11.09,25.25,16.67,18.5,23.95Z" fill="#824d2f" stroke="#260710" stroke-miterlimit="10" stroke-width="6"/><path d="M210.36,243.33c-2.37,5.11-6.73,19.02-20.17,19.33-10.43.25-10.05-9.61-7.33-19.17,2.71-9.56-6.67-16,5-23s26.83,13.5,22.5,22.83Z" fill="#824d2f" stroke="#260710" stroke-miterlimit="10" stroke-width="6"/><path d="M107.31,125.17c-3.83,4.14-13.23,18.85-26.67,19.17-10.43.25-11.04-18.73-8.33-28.28s10.3-14.77,23.22-11.09,18.52,12.92,11.77,20.21Z" fill="#824d2f" stroke="#260710" stroke-miterlimit="10" stroke-width="6"/><path d="M246.14,184.15c-3.83,4.14-10.79-2.8-24.23-2.48-10.43.25-7.97-4.38-2.11-12.4,6.38-8.73,1.74-19.22,14.67-15.54s18.42,23.14,11.67,30.43Z" fill="#824d2f" stroke="#260710" stroke-miterlimit="10" stroke-width="6"/><path d="M114.88,233.79c-4.53,3.35-19.03,8.29-24.63,6.82-10.09-2.65-11.71-10.61-9-20.17s12.01-13.51,24.94-9.83,14.56,18.83,8.69,23.18Z" fill="#824d2f" stroke="#260710" stroke-miterlimit="10" stroke-width="6"/><path d="M171.15,39.39l16.48,8.6c3.71,1.94,7.71,3.24,11.85,3.85l18.39,2.72c12.13,1.8,22.61,9.41,28.06,20.39l8.27,16.64c1.86,3.75,4.34,7.15,7.33,10.08l13.27,13.01c8.75,8.58,12.76,20.9,10.72,32.99l-3.09,18.33c-.7,4.13-.7,8.34,0,12.46l3.09,18.33c2.04,12.09-1.96,24.41-10.72,32.99l-13.27,13.01c-2.99,2.93-5.46,6.34-7.33,10.08l-8.27,16.64c-5.46,10.98-15.94,18.59-28.06,20.39l-18.39,2.72c-4.14.61-8.14,1.91-11.85,3.85l-16.48,8.6c-10.87,5.67-23.82,5.67-34.68,0l-16.48-8.6c-3.71-1.94-7.71-3.24-11.85-3.85l-18.39-2.72c-12.13-1.8-22.61-9.41-28.06-20.39l-8.27-16.64c-1.86-3.75-4.34-7.15-7.33-10.08l-13.27-13.01c-8.75-8.58-12.76-20.9-10.72-32.99l3.09-18.33c.7-4.13.7-8.34,0-12.46l-3.09-18.33c-2.04-12.09,1.96-24.41,10.72-32.99l13.27-13.01c2.99-2.93,5.46-6.34,7.33-10.08l8.27-16.64c5.46-10.98,15.94-18.59,28.06-20.39l18.39-2.72c4.14-.61,8.14-1.91,11.85-3.85l16.48-8.6c10.87-5.67,23.82-5.67,34.68,0Z" fill="none" stroke="#260710" stroke-miterlimit="10" stroke-width="12"/><path d="M17.64,36.98l2.18,6.28c2,5.79,6.03,10.66,11.33,13.72l3.71,2.14c.12.07.12.24,0,.3l-3.71,2.14c-5.31,3.06-9.33,7.93-11.33,13.72l-2.18,6.28c-.05.16-.28.16-.33,0l-2.18-6.28c-2-5.79-6.03-10.66-11.33-13.72L.09,59.42c-.12-.07-.12-.24,0-.3l3.71-2.14c5.31-3.06,9.33-7.93,11.33-13.72l2.18-6.28c.05-.16.28-.16.33,0Z" fill="#9e5339"/><path d="M46.84.08l1.45,4.2c1.34,3.86,4.02,7.12,7.57,9.16l2.47,1.43c.08.05.08.16,0,.2l-2.47,1.43c-3.54,2.04-6.23,5.29-7.57,9.16l-1.45,4.2c-.04.11-.19.11-.22,0l-1.45-4.2c-1.34-3.86-4.02-7.12-7.57-9.16l-2.47-1.43c-.08-.05-.08-.16,0-.2l2.47-1.43c3.54-2.04,6.23-5.29,7.57-9.16L46.61.08c.04-.11.19-.11.22,0Z" fill="#9e5339"/><path d="M249.04,12.39l1.45,4.2c1.34,3.86,4.02,7.12,7.57,9.16l2.47,1.43c.08.05.08.16,0,.2l-2.47,1.43c-3.54,2.04-6.23,5.29-7.57,9.16l-1.45,4.2c-.04.11-.19.11-.22,0l-1.45-4.2c-1.34-3.86-4.02-7.12-7.57-9.16l-2.47-1.43c-.08-.05-.08-.16,0-.2l2.47-1.43c3.54-2.04,6.23-5.29,7.57-9.16l1.45-4.2c.04-.11.19-.11.22,0Z" fill="#9e5339"/><circle cx="277.71" cy="36.86" r="5.37" fill="#9e5339"/></svg>