<?xml version="1.0" encoding="UTF-8"?>
<svg id="b" xmlns="http://www.w3.org/2000/svg" width="554.88" height="340.05" viewBox="0 0 554.88 340.05">
    <g id="c">
        <path d="M75.69,23.04l2.88.08.25,3.76,13.87,1.17,1-22c2.34,1.63,5.09.52,7.3,1.02.83.19.26,1.81,2.12,2.06,2.76.36,11.37.36,14.14,0,1.95-.25.53-1.91,3.85-2.16,5.43-.41,4.12,1.91,6.01,2.16,2.78.36,11.35.36,14.13,0,1.96-.26.57-2,3.89-2.17,4.46-.23,3,1.92,4.97,2.17,2.61.34,10.53.34,13.13,0,1.75-.23,1.2-3.04,7-2.15,1.88.29,1.32,1.86,2.12,2.05,2.82.66,9.4.01,12.84.01,5.82,0,2.39-.57,4.13-.98,6.1-1.43,6.53,1.99,6.92,2.01,1.21.04,13.88-.83,14.75-1.04s.33-2.17,2.15-2.09c5.72.24,11.99,3.21,20.1,2.19,1.96-.25,1.05-2.17,2.9-2.21,6.23.06,15.7,2.94,22.44,1.04l.08-5.91c20.7,1.5,44.12,1.58,64.56.06,6.07-.86,11.29-6.7,8.45,5.94h44s-.01-4-.01-4c4.01.95,15-2.37,18.04.5.96.9-.25,2.86,1.56,3.37l14.4.16-1.99,1.98,5.48,1.03.02-3.02c17.18.45,34.57-1.36,51.49,2v-5c5.25-.38,6.75.19,5.07,5.39l.91,1.14c14.95,2.48,27.73,10.67,39.71,19.35,3.26.5,2.72-8.54,8.17-.23-4.99,7.41,6.6,10.4,9.14,16.92l5.54-1.59,3.39,4.42-3.83,3.93c7.44,12.22,13.28,25.41,16,39.56l5.91.09-.12,6.89-4.89,1.12c1.59,7.42,1.51,15.98.25,23.53,5.72,2.41,5.74,1.48,3.73,8.44l-4.97-.99c-1.72,10.96-6.62,21.05-11.84,30.68-1.4,2.57-7.76,10.72-7.16,12.78.45,1.54,3.78.87,2.97,3.02l-3.62,3.46-3.86-2.91-12.49,11,2.53,3.98c.8,1.79-3.31,3.77-4.94,2.94l-2.09-2.93c-11.38,9.31-26.06,15.48-40.51,18l.93,3.33c-4.32,4.98-6.21,1.89-6.93-3.34-1.31-.59-2.95,1-3.49,1h-40.5c-.53,6.42.48,8.5,6.82,5.74.63-.71-.86-4.21,3.69-2.78.86.27.16,2.16.7,2.76,1.36,1.5,8.99,2.1-.27,5.88l.06,7.39,3.33-.02c1.88.24.8,6.77-3.32,4.01v9.01s4,.5,4,.5c.25,3.51-1.36,3.48-4,2.49v9.01s24,0,24,0v-4.01s4,0,4,0v4.02c2.95-.25,4.17-.52,4.87,2.66.39,3.17-4.71,1.67-4.93,2.9l.06,17.43h5s.02,3.5.02,3.5l-4.79,1.96c1.5,4.58.89,9.47-.31,13.99.07.93,4.74.49,4.06,3.04-.46,1.7-5.8.39-4,5.52h-3.99s0-5.01,0-5.01h-24v27h4.01s.02,3.5.02,3.5l-4.6,1.46.57,4.03-5,.02v-4.02s-33,0-33,0l.02,3.39-2.51.61-1.54-4.96-3.97-.04v-3.99s5.01-.01,5.01-.01l-1.12-25.87-16.23-1.02c-1.88.56-2,5.16-5.65,3.91l-.05-3.97c-3.68.42-5.24-1.58-7.47-4.03l-.49,2.98-3.5.05-1.03-3.1c-8.29.16-16.72,1.69-24.85.12l-2.11,3.96-2.61-.63c.08-5.22-5.76-1.67-3.4-6.42l2.5.03.08-21.45-3.09-1.05.16-3.41,2.93-.65v-7.9s-3.08-1.05-3.08-1.05c-.7-3.33,2.69-2.84,3.03-4.2,1.23-4.93-1.01-14.3.06-19.83l-2.97-3.79c.31-3.42,2.95-2.21,3.74-2.78.21-.15-1.45-3.72,2.63-2.86,1.67,4.51,6.15,2.97,10.02,2.97h16.5c-.72-1.92-.54-4.51-1.08-6.24-.3-.98-1.86-.41-2.01-2.23-.2-2.37,3.8-4.11,2.09-8.53l-17.53.29-2.03,4.77c-2.14-.33-4.75.38-6.75-.08-.8-.19-.27-1.82-2.12-2.06-6.12-.8-12.43,1.19-18.05,1.16-13.7-.09-20.62-2.24-34.2.9-4.9,1.13-12.45.47-11.32-5.97-1.11-1.25-13.99,2.3-14.49-2.03l-1.48.04-3.58,4.8c-3.38.77-5.73-2.75-6.87-2.89-2.05-.26-13.36-.35-14.86.05-1.14.3-1.04,2.56-2.11,2.75-3.85.68-5.61-3.37-6-3.44-.7-.12-13.44.01-14.14.12-1.28.19-1.95,2.73-4.95,2.71-3.87-.03-9.04-3.16-16.05-2.16-3.06.44-6.13,3.77-9.49,1.54-.77-.51-.69-2.37-1.4-2.37-1.9-.02-10.06.59-12.01.94-2.04.36-3.07,2.24-6.04,2.06-26.76-7.21-12.56,1.16-26.96-.05l-1.06-3.08c-4.72,2.1-10.12.33-14.94,1.07-2.33.36-5.04,3.25-8.55,1.96.56-6.04-2.75-12.16,0-18.01h-14c-.11,0,.29,1.4-.67,2.06-.86.59-2.87.58-3.2,1.08-1.22,1.84,1.64,9.63-1.77,10.73l-6.37.14-.57-12.02c-4.52-.82-11.01.48-12.97,5.06-1.7,3.95,3.49,8.37-8.49,6.41-1.91-4.82-2.46-8.52-6.65-12.52l-11.32,1.07.57,10.03c-12.36,1.35-11.76,2.95-11.5-10.47-3.79-.74-3.59-1.79-4.17-5.45l-11.9-.1.47-10.1c3.86.19,1.71-1.72,4.12-3.81,2.8-2.43,11.11-3.08,12.21-6.78.73-2.45,1.08-6.23-1.81-6.82l.05-1.46c3.07,1.31,2.24-9.17,1.8-9.87-2.24-3.58-22.62-4.87-16.33-16.16,2.92-2.37,14.48-11.98,15.29-14.71,1.04-3.52,1.06-12.7-2.78-14.8,3.31-1.29,4.26-5.71,4.07-9.02-.28-4.91-10.99-10.79-13.04-15.82-.57-1-2.63-.44-2.91-.75s-1.15-7.94-1.05-8.35c.36-1.55,2.95-1.1,3.68-1.85.51-.52-.08-2.08.83-2.8,1.44-1.14,10.47-2.81,11.23-4.08l1.06-8.42-1.97-1.03c1.2-15.27,5.82-11.15-8.32-19.55-1.88-1.26-1.35-4.01-5.61-2.85l-.6-7.55c1.7-5.42,12.02-.17,13.6-1.46l-1-2.98,4.56-.96-.56-13.04h9s0,13.99,0,13.99h14c-.11-2.67,3.25-3.78,3.81-5.7.71-2.45-.97-7.24,1.83-8.16,9.39-3.1,6.21,4.59,8.3,8.17,8.32,4.57,1.8,8.16,12.05,6.68v-14.99s9.01,0,9.01,0v15ZM294.69,7.03l-1.67-2.82-12.33-.16,1.68,3.03,12.32-.05ZM312.69,4.05h-15.99s0,3.99,0,3.99c5.23-2.53,13.09,1.63,15.99-3.99ZM437.69,9.04l-2.99,1.5,1.99,1.48-12.99.5,7.46,8.49c3.42-4.04,9.07-5.94,6.52-11.98ZM322.69,11.05l-54.01.49,28.51,9.37,25.5-9.86ZM355.7,11.04c-1.77,1.72,5.78,8.11,6.49,9.98l7.5-7.5c.91-4.06-11.6-2.04-13.99-2.48ZM392.69,12.04h-15s7.01,9.49,7.01,9.49l-7-6.49v14c7.42-7.2,7.95-7.91,14.98,0v-12s-4,1.49-4,1.49l4.01-6.48ZM101.69,14.54v16.5l7.99-7.02-6.98-9.98,7.49,7.98,8.5-8.97c-3.04-.19-16.24-.98-17,1.49ZM256.19,13.04c-5.06.39-10.41-.28-15.5,0l8.5,8.98,9.5-9.49c-.77-1.65-2.25.49-2.5.5ZM347.69,12.04h-15l6.51,8.01,8.49-8.01ZM415.69,12.04h-15l6.64,7.93,8.36-7.93ZM467.69,18.04c-2.95-.92-1.98,4.43-2.86,7.69-.47,1.71.72,2.78-2.13,2.3.21-3.39,4.62-9.02,0-10.48l1.51-2.51-16.42-2.92-.65,18.99,11.57,1.92-10.99-18.99c4.52,5.53,9.94,12.25,12,19l1.98-.7,1.52-3.29,2.93,2.95,5.48-3.56-3.93-10.4,5.01,10,10.98-7.01c.93-1.51-14.14-5.71-15.51-5.99-2.79-.43-.47,1.45-.49,3ZM139.69,17.04c-1.45,2.63-2.25,4.46-4.96,6.5l6.95,7.5.02-13.43c.11-.92-1.44-.73-2.01-.57.77-1.39,2.33-2.18,1.99-3.99h-15.99s7.64,8.92,7.64,8.92c1.95.34,4.21-4.33,6.36-4.92ZM163.69,13.04h-14l6,8.99-5.99-4.99v11c4-4.46,12.64-9.37,13.99-15ZM187.69,13.04h-15l6.5,8.98,8.5-8.98ZM206.69,19.04c-.84,1.42-3.14,3.85-2.85,5.36l5.84,5.64v-13c-.21-.29-2.29,1.6-2.99,2,1.28-2.15,2-4.06,4-6h-15c-.38,4.09,4.24,6.13,6.5,8.98,1.14-2.09,3.05-2.15,4.5-2.98ZM233.69,13.04h-16c-.33,3.98,4.17,6.35,6.64,8.93l9.36-8.93ZM266.69,13.04v20l28-10.01c-1.46-3.33-26.07-10.16-28-9.99ZM324.69,13.04c-8.52,1.94-16.12,7.45-25,8.01.15,1.62,1.56,1.46,2.59,1.9,7.26,3.12,15.34,4.45,22.41,8.09V13.04ZM258.69,30.03l-.49-14.99-7.43,8.36c1.15,1.23,6.46,7.71,7.93,6.63ZM347.69,30.04v-15l-6.82,6.49,6.82,8.51ZM401.67,15.05l-2,.51,1.03,13.48,5.92-6.63-4.95-7.36ZM414.68,29.04l1-14-6.69,7.5,5.69,6.5ZM422.69,30.04l6.97-7.5-6.97-7.5v15ZM117.68,30.04l1-14-6.92,6.64,5.92,7.36ZM186.68,30.04l1-14-7.03,7.5,6.02,6.5ZM232.68,30.04l1-14-7.97,7.5,6.97,6.5ZM240.69,16.04v14l6.93-7.36-6.93-6.64ZM356.68,29.03c.43-2.94,3.23-4.41,4.98-6.49l-5.95-6.5c.56,2.01-1.34,13.69.98,12.99ZM369.68,29.04l-.48-12.99c-1.61,4.39-16.07,13.22-10.85,17.04,0,0,11.34-.05,11.34-.05-.35-4.27-6.69-5.33-5.98-9.99l5.98,6ZM437.68,30.03c1.61-4.51.91-9.29,1-13.99l-6.81,7.51,5.81,6.48ZM126.7,29.04l5.97-5.5-6.97-6.5,1,12ZM163.68,30.04l-.49-12.99-5.44,6.36,5.92,6.63ZM187.69,34.04l-14.99-17v11s4.99-2.99,4.99-2.99c-1.82,3.16-6.03,4.6-5,8.99h15ZM195.7,28.04l4.92-4.64-4.43-5.36-.49,9.99ZM220.04,20.68c-.82-.74-.94-2.55-2.33-2.64v11s5.97-5.5,5.97-5.5c-.88-1.37-2.52-1.83-3.64-2.86ZM321.69,31.05l-24.48-7.91-28.52,10.89c1.26-.49,54.38.47,52.99-2.98ZM483.69,23.05l-10,6.01,3.01,7.98c3.7-3.46,4.02-9.78,6.99-13.99ZM163.69,34.03l-7.49-9.98-6.48,7.51c-.94,4.04,11.61,2.04,13.98,2.46ZM250.05,25.62c-.64-.56.16-1.95-1.34-1.57l-6.99,8.49c-.05,2.5,13.58,1.68,15.98.49.65-.88-6.6-6.49-7.64-7.41ZM391.69,32.03l-6.5-7.97c-13.06,11.84-3.98,7.45,6.5,7.97ZM413.69,33.03c1.13-1.04-4.58-7.76-5.53-8.99-2.26-.56-5.47,6.29-7.44,7.5l12.98,1.49ZM430.19,24.06l-6.48,7.48c-.04,2.14,10.16,1.85,12,1.02,1.71-1.25.27-1.45-.41-2.61-1.34-2.29-3.17-4.11-5.11-5.88ZM509.69,34.05c-3.35.47-15.58-11.19-17-10.01l2,13.99c4.41-.97,9.05-1.21,13.48-2.04,1.62-.3,1.75.68,1.52-1.95ZM117.69,34.04l-6.64-8.93c-1.28-.21-8.55,6.74-8.36,8.93h15ZM140.69,34.03l-6.53-9c-1.35-.33-7.16,5.73-7.49,7.49-1.55,3.37,11.47.32,14.01,1.51ZM209.69,34.03c1.31-1.16-6.52-7.93-7.63-8.93l-6.35,6.46c-.93,4.04,11.61,2.04,13.98,2.46ZM232.69,34.04c-.56-4.32-6.21-5.55-8.5-8.98-2.25,2.86-6.88,4.89-6.5,8.98h15ZM346.69,33.03c.81-.68-4.64-7.67-5.99-7.99l.08,7.91,5.9.09ZM486.69,41.04l6.53-2.95-2.04-12.05-6.43,13.61c-.74,2.07,1.75,1.17,1.94,1.38.33,3.76,5.6,5.4,7.99,8l-1-9-6.99,1ZM475.69,37.03l-3.02-6.99-6.98,4.51,10,2.49ZM459.69,36.06c-11.36-6.16-16.65-1.81-8.49,8.96l8.49-8.96ZM26.69,38.04v16c5.92,2.41,12.82,1.7,19.34,1.84l1.66-1.34v-15c0-.35-4.79-1.95-3-5.5h-13c-4.51,4.59,17.9,18.68,14.51,20.99-5.27-4.74-10.96-11.26-16.5-15.5-1.01-.77-1.26-1.93-3.01-1.49ZM65.69,40.04c.32-.5-.49-1.92,1.9-2.44l-1.52-3.62-12.95.4c-.66,2.06-3.44,2.43-3.44,2.66v15.5c0,.17-2.14,1.75-.5,2.5,5.07-3.87,10.79-13.04,16.5-15-4.56,5.74-9.41,9.44-14,15h16c.11,0-.36-2.11.58-2.05l2.41,1.05-1-15.01c-1.2.89-2.9.63-3.99,1.01ZM347.69,35.05c-.39-.55-11.69-.13-13.51-.01-1.49.1-2.89-.77-2.48,1.49l7.49,8.51c1.19-1.71,9.68-8.35,8.5-9.99ZM369.55,37.91l-.3-2.93-11.94-1.01c-3.82,5.23,1.77,7.44,4.88,11.04l7.36-7.11ZM374.69,38.54c-1.06,3.11.78,11.65,0,15.5l7.85-8.7-5.85-7.29,7.5,5.97,8.51-7.49c-.54-4.52-11.03-1.71-14.44-2.56.18,2.77-3.39,4.05-3.57,4.57ZM400.7,35.05c-1.54,2.29,5.05,7.45,6.63,8.92,13.34-8.14,5.31-12.3-6.63-8.92ZM423.69,39.04c-11.77-4.73-15.21,10.63-24.51,14.99-1.69-2.36,6.5-6.73,6.58-7.57l-6.58-8.42-2.33,1.67c1.38,19.76-2.08,13.52,16.33,16.32l1.03-2-6-7.01,9.49,7.01v-14h2v14l8.98-8.5c-2.29-2.33-3.99-3.26-4.98-6.5,3.13,1.04,3.45,3.36,6.51,4.78,1.44-1.27,9.37-7.93,7.48-9.77-5.53,1.19-16.64-3.66-14,4.99ZM92.69,36.05l-14.88-.89c-.58,4.95-2,4.45-5.63,6.82l1.51,11.06,9.98-7.01-5.98-8.98,7.49,6.98,7.5-7.97ZM103.33,35.17c-.59.16-2.09,1.2-1.15,1.87l7.15,6.93,8.34-7.43c.04-2.06-12.45-1.88-14.35-1.37ZM128.35,35.19c-4.99,1.63,1.51,8.08,3.85,9.83l8.48-8.48c.04-2-10.61-1.91-12.33-1.35ZM187.69,38.02c2.77-3.91-13.55-3.35-15.38-2.05-.27.19-3.32,5.42-3.38,5.75-1.51,22.08,2.85,7.28,8.78,6.3l-7-7.97,8.36,4.88,8.63-6.9ZM210.69,36.05c-1.25-1.77-15.59-1.44-15.95,3.42l7.32,6.49c1.42-1.44,9.74-8.36,8.63-9.92ZM218.7,35.04c-.8,4.66,3.76,7.06,6.63,9.93l8.34-7.43c.06-2.85-12.7-.35-14.97-2.5ZM257.69,38.02c-2.6-5.22-11.69-1.16-17-1.97,12.76,16.13,9.53,3.52,17,1.97ZM323.69,35.04c-.94.93-59.68-2.26-56.51,2,0,0,27.01,19.03,27.01,19.03l29.5-21.04ZM158.09,43.48c1.13-1.09,8.45-5.76,5.62-6.96l-14.02-.48c-1.47,3.24,6.66,12.62,8.4,7.44ZM474.48,39.28c-3.48-1.2-7.09-3.54-10.79-2.23l3.01,11.99c4.24-1.66,10.69-4.47,7.78-9.76ZM325.69,37.04l-3.98.52-24.03,17.98,23.54.52c.59-.87,4.47-2.75,4.47-3.02v-16ZM370.71,37.04l-6.94,9.36,7.43,7.62c1.87.04,3-15.66-.49-16.98ZM440.54,37.25l-1.33-.2-8.5,8.49,8.48,8.48c2.51.05,1.2-11.77,1.51-13.97,3.71-2.95,1.38,10.08,2,11.99l6.98-5.03-4-9.97-3.49,2.04-1.65-1.83ZM508.69,37.05l-13,1.99,1,9.99c1.58,1.7,10.6-10.82,11.99-11.98ZM525.69,52.04l-14.05-14.61-10.93,12.13c-.84,2.81,5.48,1,6.98,1.49l-5.99,1c-.03,4.77,5.23,5.64,5.99,9.98l-7.02-6.47-3.86-.4-8.1,16.87,19.97-6.5c-3.46-2.37.4-3.59.97-7.05.91-5.54.18-13.56,1.06-19.44,4.86-1.27-.12,10.25.99,12.99h14ZM96.69,55.04v-15.5l-2.39-1.41c-1.6,1.29-7.91,5.13-7.54,7.28l9.93,9.64ZM98.69,54.04c1.79-1.3,9.21-7.79,8.93-9.36l-6.44-6.63-2.49,1.5v14.5ZM120.69,53.03c-.49-2.5,1.67-15.92-2.48-14.99l-7.5,7.5c4.16,1.71,5.31,7.24,9.98,7.49ZM139.69,53.04c-2.8-1.44-5.16-3.56-7.5-5.98l-7.49,8.5c.91,2.64,15.99,1.12,17.99,1.49l-3-4c.97.5,4.23,2.61,5,1.99-2.8-11.16,2.88-25.49-10.93-9.36-.47,2.61,6.37,3.96,5.93,7.37ZM327.7,53.03c1.93,1.98,8.44-6.27,9.98-7.5l-7.5-7.49c-4.14-.93-1.99,12.49-2.48,14.99ZM350.69,38.04c-2.55-1.16-10.16,7.05-9.93,8.36l7.89,7.2,2.03-1.06v-14.5ZM389.04,49.69c8.56,8.85,5.87,1.1,5.81-5.23-.02-2.43,2-4.67-.68-6.42-4.21.61-5.37,5.17-8.43,7.5,1.49,1.06,2.18,2.99,3.31,4.15ZM122.7,53.03c1.12,1.26,7.04-5.55,7.92-6.63l-6.43-7.34c-2.5-.05-1.22,11.77-1.49,13.97ZM154.69,48.02c1.03-1.46-6.37-7.93-7.98-8.98-1.35,5.02-.88,9.94,0,15l7.98-6.02ZM159.69,50.04c-.57-.34-3.62-1.74-4-1.57l-8,8.57h16v-1.49c-2.43-1.68-2.87-3.28-4-5.51,2.57,1.53,3.68,4.55,7,4v-15l-8.57,7.02-.29,1.31c.4,1.01,1.39,1.74,1.86,2.67ZM190.69,39.04c-2.55-1.16-10.16,7.05-9.93,8.36l7.93,8.15,2-1.01v-15.5ZM212.69,39.04c-1.98-.3-10.4,8.43-10,8.98l8,6.53,2-1.01v-14.5ZM216.21,39.04c-2.35.5-2.51,15.72.95,14.98l7.51-7.48-8.47-7.5ZM235.69,39.04c-2.36-.62-1.69.6-2.29,1.28-1.13,1.28-5.81,6.08-5.64,7.08l7.93,6.64v-15ZM237.69,56.04l10.98-9.5c-2.09-1.52-6.25-7.52-8.48-7.54l-2.5,1.54v15.5ZM250.69,48.05c3.98-.43,5.79,3.89,8.5,5.97,2.02.04,2.98-15.86-.98-14.97-3.88,6.29-16.08,11.78-17.51,17.99h17c2.23-2.29-6.69-6.42-7-8.99ZM290.69,55.05c-6.59-1.76-18.83-15.62-24.57-16.02-5.93-.41-4.02,15.55-.42,17.5s17.62-2.02,22.51-.49l2.48-.99ZM352.69,53.04c3.4-.39,5.44-4.5,7.96-6.5-2.86-2.16-3.99-7.21-7.96-7.5v14ZM455.68,56.03l4-16.99-7.79,7.63,3.78,9.36ZM465.61,50.9c-.98-2.35-1.54-11.62-3.9-11.86l-4.01,15.99,7.91-4.13ZM192.69,55.04l7.98-7.5-7.98-7.5v15ZM24.69,54.04l-.49-11-2.59,2.45.08,8.55h2.99ZM495.69,53.03l-9.51-8.98c-2.62-.73-.99,2.5-1.49,2.99-2.63-1.17-6.98,1.45-7.18-1.77l-9.9,5.39c3.79,18.5,5.59,2.27,9.09-3.61l1.96,1.49-6.98,12.5,24-8ZM94.69,57.03c1.44-1.26-8.52-9.59-9.49-10.98l-9.48,8.48c-.03,1.99,16.46,2.26,18.97,2.49ZM101.19,57.04h16l1.01-2c-2.73-1.98-6.56-8.38-9.93-8.05l-8.09,8.05,1.01,2ZM346.69,56.03c1.38-1.22-6.6-7.76-7.49-8.98l-7.49,7.5c-.57,2.84,12.65.98,14.99,1.48ZM369.69,56.03l-7.5-8.97-6.5,6.5c-.91,4.06,11.6,2.05,13.99,2.47ZM391.69,55.04l-7.5-7.98-7.5,7.98h15ZM437.69,55.04l-7.64-7.93-8.35,7.44c-.26,3.06,1.08.49,1.49.49h14.5ZM187.69,57.03l-8.02-8.99-7.95,7.5c.21,2.74,13.73,1.45,15.97,1.48ZM218.69,57.04h16l-8.5-8.98c-.89,1.21-8.87,7.77-7.5,8.98ZM450.69,48.04l-7.93,5.11,1.12,2.73,9.82.16-3.01-7.99ZM209.69,57.04c.29-1.9-7.75-8.12-8.41-7.97l-7.59,7.97h16ZM460.69,59.04c2.09-.04,4.1.64,5.93,1.6l2.04-1.09-1.98-7.51-7.99,4.01c-.49,1.99.7,1.96,1.99,2.98-4.79.41-4.16,2.06-4,6l-1.99-3.99-9,11.99,7.52-13.09c-.41-3.35-9.23-3.78-11.56-1.43s-.29,15.53-.96,19.52l2.98-2-.99,3.99c4.15-1.68,16.28,4.2,15.78-2.19-.33-4.3-1.79-7.97-1.79-12.81l3.99,14.99,7.07-17.43c-3.53-.97-4.44-1.49-7.06-3.56ZM514.69,72.04c.87.79,3.67,4.25,3.99,4l3.01-7.99-6.99-2,22,3.98-8.02-14.98-1.86.48-1.11,2.51v-5h-15.01v9.99c1.91,1.97,10.86-8.28,14-7.99-6.53,7.58-12.09,5.51-10,16.99-2.74-2.49-3.6-4.24-8.28-3.78-2.16.21-17.42,5.13-17.7,6.34l7.99,13.44,3.98-4-1.97,4.51,1.47,1.46c1.04-.88,2.27-.79,3.51-.97-.57.35-1.46,2.25-3.39,1.92l-.61,2.07c3.05-.14,5.78,1.97,8,3.01-2.66-.63-5.39-.76-8-1.99l3,17c1.18,1.2,17.57-6.63,17.97-7.53.33-.74.33-1.9-.57-2.55-1.94-1.82-10.81-2.02-12.4-4.93,5.38,1.28,10.46,3.44,15.99,4l-2.12-12.88c-7.43-3.42-10.82.86-17.88,1.88,3.8-2.36,8.03-3.23,11.58-6-1.68-3.99,1.63-4,1.47-5.42-.57-1.98-1.67-3.5-2.05-5.58ZM495.69,55.05c-6.63,2.04-13.26,4.35-19.79,6.73-.76.28-3.12-.1-2.2,1.75.62,1.26,4.05,2.34,5.49,3.51,1.79,1.45,4.32,5.71,6.87,4.95l9.62-16.93ZM67.4,58.38c-3.52-2.24-12.3-1.79-16.71-1.33l15.56,15.95,5.43-4.56-1-8.4c-2.56,1.7-2.48-1.14-3.29-1.66ZM24.69,57.03h-3.99c-.45,3.17,1.74,6.08-.01,8.99l4,1.02v-10ZM46.69,57.05l-21,1c1.11,5.39,1.75,10.62,0,15.99,1.46.06,2.4,1.19,3.97.55,3.22-1.32,13.47-14.53,17.04-17.53ZM338.87,66.82c2.86,1.34,6.87-4.48,8.67-6.44l-.83-2.87-16.01.55,8.18,8.77ZM370.69,57.04h-16c-.32,5.62,4.74,6.24,5.99,11-1.04,1.11-6.71-7.49-7.15-7.78-.18-.11-4-.2-4.21-.17-.57.08-5.86,7.65-7.56,8.59l7.93,9.36v-16c4.59,1.46.34,15.48,1,15.99l3.99-1.99-1.99,3.99,17-1-2.99-4.99,3.99,3.51,2-1.01v-17.5l-16.99,16c-1.73-1.95,16.93-16.29,14.99-18ZM393.69,57.04h-17.5c-4.51,4.47-.09,13.89-1.99,20.01,1.4-1.63,20.13-17.89,19.49-20.01ZM415.69,60.04l-17,19h17l-8.02-7.53.52-2.47,9.5,7.99v-18s-1.99,1.01-1.99,1.01l-.54-3.07-16.45.07,7.63,9.92,9.36-6.93ZM438.69,57.04c-25.22.01-19.29-2.96-20,21l5.99-5-3.99,5.99,16.99,1.01-3.99-5.98,4.99,2.99,1-18c-3,3.2-10.74,7.26-9,12-2.1-1.06-3.02-.94-4.5,1l1.08-4-6.57-7.99c1.19-1.1,7.31,5.1,7.02,6.98l1.45-.02,9.53-9.98ZM94.69,58.04h-19l10.36,8.93,8.64-8.93ZM117.69,58.04h-18l9.5,8.97c.72-1.14,10.31-7.37,8.5-8.97ZM125.69,61.04c-6.58-2.05-4.18,17.02-2.5,16.98l9.48-9.48-6.98-7.5,8.36,5.93,7.64-7.92-15.46-1.08-.54,3.07ZM210.69,62.04l-1.62-3.87-15.38.88c1.45,3.53,7.95,5.91,7.5,9.99-11.65-11.89-8.66-11.32-20.49.5l9.98,8.5v-14.5c0-.37-1.34-1.47-1-2.49h2s0,15.49,0,15.49l2,1.01c5.43-4.03,10.96-13.79,17-15.51.81,3.12-6.99,6.21-6.98,7.5,1.31.93,8.73,9.91,9.98,8.49.75-5.43-2.68-10.82.01-15.99h-3.01ZM217.69,62.04l8.36,5.92,7.63-9.92-15.45.93-.54,3.07-3.07.54.08,16.46,9.97-9.5c0-1.29-7.79-4.38-6.98-7.5ZM237.69,60.04v18c3.01-2.71,18.94-16.77,19.01-19.49l-17.01-.5c.15,2.44,10.69,8.24,8.99,9.98l-10.99-7.99ZM272.69,73.04c5.84-5.3,12.16-9.74,18-15h-26c-.13,0,.39,1.8-.27,2.68s-2.31.5-2.76,2.79c-.31,1.63-.22,10.55.48,11.57,2.39,3.5,7.66-.56,10.55-2.04-1.98,1.8-3.63,4.69-7,5.02l3.52,2.96,52.47-.98c-2.44-7.94-21.4-14.39-27.48-21.79-7.12,5.13-13.66,10.77-21.51,14.8ZM322.19,58.04c-4.8-1.6-18.6,1.19-24.5,0l25.51,19c-.22-1.67,2.49-1.82,2.49-2v-14c-1.66.63-2.79-2.46-3.5-3ZM47.69,75.04c.8-1.25-.59-13.28,0-16l-16.85,16.65-.15,2.34,8.99.99c-4.73-.38-8.28-.44-9.85,4.69l18.85,24.32c-2.8-9.81,6.46-25.43-7-29.5,6.53.29,1.69-3.65,6.01-3.5ZM65.68,75.02c-.3-1.2-14.59-16.85-16.98-15.97l1,16,2.99-1.01c-.13,6.77,9.48,4.05,12.99.98ZM163.69,59.04h-16l8.5,8.98c.89-1.21,8.87-7.77,7.5-8.98ZM188.69,59.04h-17c-.19,2.18,7.1,9.15,8.36,8.93l8.64-8.93ZM396.69,60.04v17l8.98-8.5c-11.86-10.72-5.41-14.8-19.91.14-.26,1.48,8.25,10.08,9.92,8.36-.05-3.48.1-6.99,0-10.49-.07-2.15-2.93-7.27,1.01-6.51ZM80.28,77.42c1.01,1.08.93,2.27,2.88,2.64,1.75.33,11.55.43,11.51-1.52-2.6-2.04-19.27-21.31-21.97-18.49v11c2.55-1.47,3.69,1.49,5.49,2.98l5.49-4.98c1.14,4.04-8.36,7.43-3.41,8.38ZM96.69,60.04c-4.14.98-6.74,5.93-9.98,8.5l9.98,8.5v-17ZM120.69,77.04v-15.5l-2-1.01-7.96,7.12,3.96,5.38-5.5-3.97-4.49,3.98,2.95-5.39c-2.09-.98-8.53-9.65-9.97-7.09l1.02,16.49,3.99-1.99-2.98,3.49c.01,3.64,16.17,2.27,19,1.02l-1.01-3.51,3,.99ZM144.69,60.04c-2.36-.63-1.69.6-2.29,1.28-2.19,2.48-4.34,4.97-6.64,7.36-.39,2.22,7.15,6.87,8.93,8.36v-17ZM235.69,77.04v-17l-8.98,9.5,8.98,7.5ZM328.7,60.04c-1.27,3.49-2.98,17.05,3.35,15.83l6.57-7.2c-1.44-1.42-8.36-9.74-9.92-8.63ZM145.69,79.04l8.93-9.64c.22-1.27-6.75-8.56-8.93-8.36v18ZM257.36,61.18c-1.06.28-6.8,6.05-6.59,7.22l8.43,7.62c1.73.01,3.72-16.33-1.84-14.84ZM166.69,62.04c-7.83.42-12.85,13.46-19,18h18l-7.99-10,8.99,8v-16ZM168.7,78.03c1.19,1.44,8.72-7.6,9.98-8.5l-8.48-7.54c-5.24-.05-.8,13.11-1.5,16.04ZM463.7,81.05c3.46-2.71,20.54-3.88,18.53-9.04-1.17-2.26-11.37-8.62-13.38-6.77-12.59,23.63-5.91,12.77,5.76,30.16.79.83.66.93,2.07.64l8.01-19.99c-.86-1.34-21.12,9.15-20.99,5.01ZM535.69,71.05c-8.31-.66-14-6.22-15.99,5.46l2.32,1.39,13.67-6.85ZM124.69,80.04h17.5c.18,0,1.77-1.6,1.5-1.98l-10.48-8.02c-.36,2.07-10.27,8.46-8.52,10ZM256.59,80.94c3.17-2.93-4.39-9.64-7.26-10.83-3.86,3.43-7.8,6.55-10.64,10.92l17.9-.09ZM347.69,80.03c1.98-1.93-6.27-8.44-7.5-9.98l-6.54,7.48c-.04,4.38,11.11,1.88,14.04,2.5ZM392.69,79.04l-8.5-8.98-8.5,8.98h17ZM188.69,80.03l-8.63-8.92-9.36,8.43c2.2,2.4,17.05,1.77,17.99.48ZM211.69,80.03l-9.36-8.92c-1.46,1.29-9.54,8.08-7.63,9.92l17-1ZM234.69,80.03l-9.39-8.95-8.6,9.95,17.99-1ZM477.7,97.03c15.25-3.68,24.38-5.92,9.48-19.99-1.86-1.67-9.8,19.51-9.48,19.99ZM49.69,83.54v24.5c7.1-6.43,12.49-14.65,18.03-22.49-6.03-6.39-10.75-8-18.03-2.01ZM376.69,85.04c7.25,5.15,11.86,19.54,19.49,24l19.51-28h-17.5l-1.5,1.5v25.5c-3.41-2.12-.79-8.29-.96-12.54-.08-2.09-1.22-12.13-1.94-13.06-1.78-2.27-14.5-1.79-18.1-1.4-.24.25.75,3.25,1.01,3.99-4.08-3.54-3.51-1.34-2,1.5,0,0,0,50.5,0,50.5,25.7-35.88,24.53-14.86,2-52ZM526.69,100.03c.9,1.21,17.51-.82,18.55-3l-4.49-16.48c-5.99-1.67-10.43,2.4-16.05,3.51l2,2.98-3-.52-.96,1.95,2.45,8.68,2.51-.1-1,3ZM95.46,83.28c-35.96-8.71-6.94,15.88.23,26.76-.02-5.3,2.9-23.63-.23-26.76ZM349.69,108.04v-24.5c0-3.52-11.84-2.4-14.33-2.54-1.56,1.82-3.01,4.75-2.28,7.06.49,1.58,14.94,20.68,16.25,20.9l17.35-19.92-15.74,22.49,21.75,28.51v-57.5l-1.5-1.5c-24.82.22-20.81-3.19-19.44,21.53-.07,1.41-.16,5.29-2.06,5.47ZM450.69,97.04c1.82-3.12,8.57-12.39,5.88-14.89-6.6.24-11.5-3.64-17.25,1.83-4.43-5.33-12.42-2.12-18.62-2.94l3.99,8.99c-3.67-1.12-3.97-9.95-8.47-5.98l-19.19,27.48,20.67,28.5v-21c4.74-1.88-.02,14.56,2.49,17.99l19.5-25.99c-3.3.85-6.48-5.97-6.98-9.01l4,5.99c1.01.43,1.99-2.33,1.99-2.49v-17.5h1v22l11-13c-1.42,2.43-2.4,4.81-4.17,7.33-.76,1.08-6.43,6.2-2.35,5.67,8.2-1.07,19.36-8.09,27.86-9.91,4.63-3.48-6.31-13.33-9.64-14.89-5.65,0-7.19,9.47-11.7,11.8ZM97.69,85.54c-1.21,6.64.89,16.47,0,23.5l14.99-15.99-14.67,19.5c-.09,1.59,16.99,22.63,19.41,25.22.58.62.33,2.63,2.27.79,3.21-12.95,1.61-37.86,1.04-51.07-.28-2.81-.19-4.77-3.59-5.41-4.09-.08-18.58-1.82-19.47,3.47ZM144.69,106.54c1-4,0-16.81,0-22,0-.18-2.32-2.5-2.5-2.5h-17.5l15,20.99c-5.1,1.17-11-14.05-14.99-17.55l-2.91.68.91,52.88,21.04-26.57-5.05-8.42,4.02,3.99c.37.23,1.9-1.16,1.98-1.5ZM164.69,82.04c-25.7-.14-17.72-2.63-19,26,2.66-.76,17.13-23.54,19-26ZM188.69,82.04h-17.5l-1.5,2.49,21,26.51v-27c-1.4.17-2.18-.54-2-2ZM210.69,82.04h-15.5c-.22,0-2.89,2.26-3.59,2.66-.36,1.74,1.09,3.24,1.09,3.84v19.5l8.99-8.99-9.93,14.36,20.44,26.63,1.5-5.42c-.34-2.18-3.19-14.19.99-12.57v17l20.93-27.37-20.92-26.63.99,35h-2.99s.99-35,.99-35l-8.98,10c.62-5.07,7.95-7.81,5.99-13ZM235.69,109.04v-23.5c0-.22-2.17-2.84-2.7-3.51l-16.3,1.54c-.55,1.6,17.79,23.75,19,25.48ZM237.69,86.54c.44,7.45-.32,15.05,0,22.5l20.01-25.49c-6.55-3.01-14.83-2.03-20.95,1.62-.28.41.92,1.12.94,1.37ZM269.69,88.04c-3.67-2.08-6.3-5.06-7.97.53l.92,47.81,2.58,1.36,28.45-26.2c-.18-.69-26.07-22.49-23.98-23.5,8.93,5.08,16.51,16.12,25.35,21.92l26.64-23.92c.44,1.88-1.04,2.38-1.99,3.5-6.8,8.07-16.21,13.91-23.06,21.98,3.02,3.62,24.24,25.02,26.56,25.17,1.39.09,3.52-1.58,3.51-3.15-1.24-13.19,1.64-29.25.06-42.06-.46-3.7-5.33-4.98-6.56-9.44h-53.5c-.01,2.25,1.78,4.22,3,6ZM26.69,84.04v39c-2.34.13-1.77.34-2-1.48-.26-2.04.41-11.12,0-11.52h-3.99s1.12,12.87,1.12,12.87l4.93,1.75-.05,12.38c1.71,2.32,18.99-25.09,22.01-25.51l-22.02-27.49ZM166.68,140.03v-55.99s-20.92,27.5-20.92,27.5l20.92,28.49ZM168.7,139.04l20.97-26.5-21.48-28.51.51,55.01ZM72.69,87.04v45.5c0,.82,3.54,3.4,4.87,2.36l17.16-22.36-19.03-26.05-3,.55ZM260.69,86.04l-3.56.93-19.21,25.58,21.27,25.46c4.56-6.75-.48-22.43.45-31.53.14-6.53,1.98-13.61,1.04-20.45ZM69.19,87.06l-18.39,24.33,17.4,22.65c5.6-.3,1.66-19.74,2.45-24.54.06-4.99.27-7.62-.02-12.93-.21-3.81,1.98-7.38-1.44-9.51ZM331.55,88.13l-3.89,1.58,1.04,46.32c7.67-2.24,12.65-18.67,20.02-23.5l-17.17-24.39ZM498.52,94.22c-2.45-2.14-15.62,2.97-18.55,4.59-1.13.63-1.7-.06-1.27,2.21l20.5,10.9c4.74-.09-.2-15.48-.68-17.71ZM25.7,107.04l-.5-12-4.57,2.61.07,9.38h5.01ZM544.42,100.37c-2.7-.88-17.45.98-16.73,4.16l6.5,7.5,9.49-8.98c-1.36,3.95-5.93,7.67-8.99,10.49l10.99,12.5c-1.14-6.77,2.39-13.23.19-19.5-.06-1.49,1.75-5.12-1.45-6.16ZM476.45,102.27c-9.62-2.55-21.16,8-31.35,8.67l-1.4,2.09c8.9.01,25.7,14.8,32.77,8.77,1.56-2.17,2.01-17.73-.02-19.52ZM498.69,115.02c-.35-5.31-15.81-8.91-19.99-12.99,1.73,7.52,1.36,14.71-1.01,21.99l20.99-9.01ZM524.69,120.04v-14.5l-2.39-1.42-17.6,9.43c-.47,2.04.84,1.35,1.97,1.97,5.38,2.51,10.66,6.09,16.38,7.56l10.65-9.06-7-7.98v14h-2ZM67.68,136.02l-17.98-22.98c.24,7.44,0,16.24.91,23.56.2,1.6,2.72,1.82,2.2,4.26,9.39.56,8.67,1.89,13.28-4.43.33-.45,1.04-.5,1.59-.42ZM295.63,113.1l-1.96.41c-7.61,9.57-22.01,16.69-26.97,27.51,5.52,3.86,10.05,1.08,15.45.98,6.16-.11,35.3,1.09,38.1-.9,1-.71,1.91-1.86.99-3.06l-25.61-24.94ZM471.38,125.35l-29.67-12.32,14.95,23.55c2.48,2.24,4.84.06,4.16,5.31l21.87,8.13-7-21c-4.53,3.89-7.69,9.34-13.99,10.99l11.56-10.99c.31-.71-1.34-3.3-1.88-3.69ZM394.69,114.04l-19.98,26.5c-.02,3.04,15.28.7,18.01.93l1.97-1.93v-25.5ZM46.23,138.61c5.37-7.31.82-15.34,1.45-23.57l-17.04,22.46c3.64,4.12,12.18,5.74,15.59,1.1ZM95.69,138.54c1.14-6.81-.84-16.36,0-23.5l-17.79,21.49c.95,5.56,17.05,7.63,17.79,2.01ZM124.69,142.04c27.57.43,18.58,2.08,18.99-27-5.33,8.47-17.07,17.37-18.99,27ZM145.7,115.04c1.25,3.73-.22,24.31.89,25.55,2.18,2.46,10.04,1.37,13.63,1.45,14.34,4.51-12.64-23.95-14.52-27ZM189.69,141.04v-26l-20,27h17.5c.33,0,1.52-1.32,2.5-1ZM235.69,115.04l-20,25.51,1.5,2.37c.38.02.73-.88,1-.88h15c.18,0,2.5-2.32,2.5-2.5v-24.5ZM237.69,115.04v25.5c4.29,3.19,11.01.43,16.31,2.35l2.45-4.54-18.76-23.31ZM349.69,140.54c.22-1.29,1.67-28.24-2.01-25.02-1.78,4.01-14.81,18.24-15.05,21.06-.8,9.36,11.59,3.81,16.04,6.46-.29-1.05.93-1.98,1.01-2.51ZM396.69,115.04v24.5c0,.18,2.32,2.5,2.5,2.5h15l1.06-2.03c-6.21-8.22-11.65-17.45-18.56-24.97ZM439.69,115.04v24.5c0,3.17,15.07,4.19,15.86-.14l-15.86-24.36ZM497.45,131.8c1.27-1.12,3.35-11.66,3.57-13.97,3.34-8.74-16.91,8.49-21.32,7.22-.78,1.02,15.07,9.74,17.75,6.75ZM543.65,128.99c1.69-2.44-7.96-11.59-9.45-13.93l-6.38,6.67c-.77,5.81,10.89,4.34,14.88,5.33-.7,3.28-12.36-1.59-15.99,0l4.02,7.99,12.93-6.05ZM118.69,142.04l-21-26v21.5c0,.41,3.35,4.5,4.5,4.5h16.5ZM210.69,142.04l-19-26v24.5l1.5,1.5h17.5ZM433.69,160.04c.62.61,4.94,2.31,5.99,4,1.45-3.65-3.33-16.06,0-16.99.76,4.08.12,11.77.98,15.3.27,1.08,2.59,1.04,2.97,2.31l-.95,4.39c-5.87-2.45-13.2-2.47-19.5-2.01-1.49.11-2.89-.78-2.48,1.49l7.63,7.44,8.35-6.93-6.92,9.36,8.43,8.62c5.6-4.61-1.16-14.03,3.5-17.98v18c2.46.43,6.73-7.27,6.81-8.67.15-2.67-4.9-5.41-4.8-8.33l15.98,16c-1.55-4.94-1.6-12.44-3.48-17.01-1.29-3.14-1.62,2.13-2.5,1.01l-1.63-3.87-7.38-.13,7.99-1-1.99-5.99,3.98,4,2.07-18.48-1.52-2.26c-2.7,1.73-12.96-.63-13.55,2.27l2,4.47c-5.33-7.2-7.59-2.42-12.98,2l6.99-11.5v-23.5l-17.98,24.5c-.01,2.57,12.64,1.15,14.98,1.51l-15.56,2.93-.43,17.06c.77-.93,3.79-1.8,3.99-2-9.06,9.96,9.37,4.79,15,4.99-1.23-1.58-2.63-3.57-4-4.99ZM519.58,123.15c-2.86-.35-15.53-8.54-16.88-7.11l-3,17,19.94-7.06-.06-2.82ZM370.69,142.04l-19-25v23c0,.2,3.3,2,3.5,2h15.5ZM521.69,137.04c0-2.04,2.93-9.55.36-10.07l-22.36,7.08c-.5,2.34.32,1.6,1.29,2.23,7.14,4.65,14.47,8.42,20.71.76,0,.65-.17,1.3.08,1.92l2.92.09-1.99,2.49,14.5,7.5c.48-2.51,2.15-1.25,2.49-1.57,1.41-1.34,5.83-16.51,4.99-17.42l-12.55,5.97,1.54,5.02c-3.09-2.42-2.21-5.07-6.99-3.01l2.99-2.48-4.5-6.51c-.71,4.05-1.11,5.06-3.5,8ZM493.69,141.04c.94-1.48,1.2-5.5-.26-6.75-2.98-1.32-13.01-6.98-16.73-6.24l8.01,20.99c2.6.69,7.29-6.62,8.99-8-3.49,5.36-8.62,11.68-6,18-4.15-10.66-17.92-10.47-26.68-15.84-5.41-.52-3.63,16.47-5.33,19.82,4.13,1.93,7.01.13,10.97-1.02l-3.96-11.96c4.47,2.66,3.04,11.21,9.71,9.25,3.59-1.06,6.16-5.49,10.28-5.24-2.35,3.01-6.69,4.69-9.69,6.76-.88.61-1.84-.16-1.3,2.22l20,8.01c-.54-4.62-3.07-7.16-3.99-12,2.59,4.07,4.61,8.31,6.95,12.53,4.09.54,11.11-4.72,9.92-8.83-.85-2.96-13.52-6.52-16.87-7.71l1.33-1.83,15.66,6.85-8-21.99c-.77.15-2.64,2.46-2.99,2.99ZM518.46,150.27c-4.11-1.47-2.94-3.81-5.78-6.71-1.43-1.24-14.02-7.25-14.98-6.51l9.05,22.96c8.96-2.2,15.62,5.24,11.71-9.74ZM26.69,147.04v16c5.57,2.11,11.53,1.46,17.51,1,2-.16,1.55.25,1.5,2-2.65-.18-3.68-.62-4.51,2.02-2.26.48-1.16-1.36-1.7-1.74-3.3-2.31-9.68,2.08-12.79.73v17c4.46-.04,10.15-12.5,13-9.51-1.29,1.89-12.14,10.4-9.99,12.5,3.78.67,19-.51,19-5.5v-14.5l-5,2.99,3.03-4.49-4.03-6.5,5.5,4.99c-.3-4.47.35-13.19-.53-17.29-3.13-5.67-11.36-6.72-15.99-2.17l2,4.46c-4.26.91,1.31-2.99-7-1.99ZM49.69,148.54c-.1,4.83.07,9.68,0,14.5l17-16.51c-4.06-4.71-7.58-3.49-13.45-3.56l-.55,3.07-2.99-1.01c-.81,1.39.01,2.7,0,3.51ZM86.69,153.04c1.57-3.73,8.37-5.62,5.89-9.9l-10.42-.12-4.46,3.04,8.99,6.98c1.84,4.08,5.45,9.66,10,11v-16.5c0-4.94-7.96,6.55-10,5.5ZM107.69,153.04c4.51.98,7.36,6.74,11,9.51l2-1.01v-16.5l-11,7.99,9-9.99c-2.08.38-17.03-1.16-18,1.49,1.79,2.44,7,5.46,7,8.51-2.68-2.19-5.12-4.49-7.53-6.98-1.35-.8-2.47,2.19-2.47,2.48v15.5c2.44-2.14,10-8.07,10-11ZM142.69,144.05l-17.99-1.01c-1.21,1.43,7.29,8.6,8.63,9.93l9.36-8.92ZM187.68,143.04l-17.99,1.49,9.36,8.43c1.44-1.49,9.68-8.25,8.63-9.93ZM321.69,145.05c-10.2-2.22-21.03-.55-31.46-.97-4.53.77-23.35-3.25-22.53,2.94l4.99,4.01c-1.07-.38-6.8-3.68-7.95-2.92l-.21,2.76-2.85.17.94,11.44,2.88.74.74,2.88,29.45-.75,25.99-20.31ZM359.69,152.04c.5.24.9.69,1.5.71,1.19-.93,9.8-8.55,8.49-9.71l-15.99,1c1.38,2.99,5.78,4.57,6,7.99-2.77-1.33-4.24-4.64-7-6v16c1.79-1.17,3.29-2.68,5-4-1.11,2.3-1.58,3.82-4,5.5,5.16,2.85,11.38,1.45,16.99,1.49l-3.99-5.99,5.51,3.99c3.05.26.48-1.08.48-1.49.14-29.22.36-14.71-15-3.5.8-1.67,2.11-4.21,2-6ZM374.69,147.54c.32,5.13-.23,10.37,0,15.5,4.32-.56,5.55-6.21,8.98-8.5l-7.98-8.49,9.36,6.92,8.63-8.42-15.41-1.51-4.51,2.16c-.58.8.9,1.93.93,2.35ZM164.69,144.04h-17l8.5,8.98,8.5-8.98ZM210.69,144.04h-16.5l-1.01,2,8.01,7.98c.63-1.29,10.67-9.12,9.5-9.98ZM233.69,144.05l-16.44-.02c-3.62.03,5.96,9.24,7.81,8.94l8.64-8.92ZM254.69,148.04c.46-.72,2.22-2.7,2-2.99-1.02.31-2.15-1.01-2.5-1.01h-14.5c.62,4.32,5.92,5.92,8.5,8.91l6.5-4.91c.46,3.06-5.23,3.61-4.93,6.37l9.43,8.61c2.39.06,1.85-12.75.37-14.85l-4.87-.14ZM344.69,160.04c2.35,1.66,3.64,3.68,7,2.99.5-.35-1-1.28-1-1.49v-16.5l-7.99,6,4.99-7h-14c-2.77,5.19,8.44,8.05,11,16-1.83-1.29-3.53-1.55-4.98-4.52-.86-.49-1.42.33-2.02.52.23-3.01-4-8.63-7.23-6.95-3.84,1.99-3.56,12.24-1.76,13.95,1.56,1.48,4.94-5.82,6.49-6.04.69-.73,1.65-.69,2.5-.96-.23,3.1-4.98,4.9-6.51,8.01l1,1.87c3.01-2.27,16.01,2.85,15.04-1.88-1.92-.91-1.84-2.78-2.52-4ZM416.69,164.04v-18.5l-1.5-1.5h-17.5l8.5,9.98,8.49-8.98-6.92,10.36,8.93,8.64ZM122.69,145.04v18c1.94-.01,10.4-8.43,10-8.98-4.08-1.36-5.84-7.03-10-9.02ZM145.69,163.04l8.98-8.5-8.98-9.5v18ZM143.68,163.04c.86-5.53.02-11.39-.48-16.99l-8.49,8.5,8.97,8.5ZM166.69,146.04l-10.01,8.5,10.01,7.5v-16ZM188.69,164.04c-5.1.02-15.81-18.17-20.99-17.99l1,15.99,8.98-6.99c1.81,1.95-9.28,7.47-4.99,10.55l15.9.27c.32-.53-.06-1.66.11-1.82s2.38.55,2.09-1.43l-1.09-16.57c-1.31-1.37-8.6,7.51-9.98,8.5l8.98,9.5ZM212.69,146.04l-9.92,8.63c1.68,3.24,10.37,13.58,10.57,4.83.09-4.2-1.32-9.02-.65-13.47ZM214.69,162.04c3.82-.32,4.86-5.56,7.98-7.5l-7.98-8.5v16ZM235.69,146.04c-4.14.98-6.74,5.93-9.98,8.5l9.98,9.5v-18ZM395.69,163.03l-1.49-16.99-8.49,8.5c1.67,1.19,8.38,9.7,9.98,8.49ZM191.69,163.04l7.93-8.36-7.93-7.64v16ZM236.69,163.03c1.64,1.19,8.3-7.29,9.98-8.49l-8.5-7.49c-3.71-1.26,0,13.38-1.48,15.98ZM396.69,163.04l7.93-8.36-7.93-7.64v16ZM70.39,150.33c-.41-.52-2.99-2.17-3.7-1.86l-16.99,16.55c3.07-.84,15.13.64,16.99-.54.56-.35.71-1.66,1.33-2.11.88-.64,2.5-.47,3.18-1.28s.56-9.05-.82-10.77ZM72.79,161.92c2.18,3.48,8.86-5.91,10.89-7.39l-5.57-6.43c-2.49-.58-2.57,2.1-5.48,2.51l.16,11.31ZM323.5,148.25c-6.71.14-18.74,13.5-24.81,17.77l24.91-1.14.26-2.68,2.84-.18-.32-10.57-2.88-3.2ZM534.69,156.05l-14.99-7.01,5,25,9.99-14.99c-2.99-1.44-12.65,3.13-12.99,0,1.36-.79,14.7-.77,12.99-3ZM25.69,164.04l-.49-12-4.33,3.18c-.61.68.79,7.91.85,8.8l3.97.02ZM117.69,165.03c1.41-1.25-7.56-8.67-8.49-9.98l-9.48,9.48c2.54,3.38,13.15-.99,17.97.49ZM93.69,165.04l-8.64-8.93c-1.27-.22-8.56,6.75-8.36,8.93h17ZM141.69,165.04c-.73-3.69-5.15-6.29-7.64-8.93-1.01-.18-6.69,5.41-8.08,6.64-.68.6-1.9-.07-1.28,2.29h17ZM163.69,165.04c.51-4.3-5.44-5.57-7.5-8.98l-8.5,8.98h16ZM209.69,166.03c1.35-1.36-7.47-8.55-8.49-9.98-17.34,16.89-1.85,6.05,8.49,9.98ZM233.69,165.04c-1.3-1.96-7.64-8.91-9.51-8.76l-7,6.76,1.01,2h15.5ZM247.34,156.19c-.75.15-6.27,5.74-7.14,6.85-.73.92-2.34,1.46-.51,2.52,1.42.81,18.03,1.12,17.99-1.02-2.21-1.78-7.51-8.9-10.34-8.35ZM393.69,165.04l-9.49-9.01-7.51,9.01h17ZM414.69,165.04l-8.5-8.98-7.5,8.98h16ZM520.65,161.09l-9.95.96,4,5.98-6.27-2.86-9.72,7.86,9,1.02.99-7,.02,6.99,12.99,1-4.99-4.01.49-1.97,5.5,3.99-2.04-11.95ZM467.69,164.04l-10,.99,3.01,20.01c2.65.24,1.63.06,1.97-1.5.37-1.68,2.01-7.39,1.98-8.04-.14-2.94-5.19-4.18-4.95-7.46,8.88,4.88,5.51,11.12,2.99,18.99,3.87,1.67,7.09-.84,11.01-1,1.72-3.3-8.69-9.1-6.99-10.99,3.24-.06,7.03,8.53,8.99,4.48l-6.51-14.48-3.49,7.99,1.99-8.99ZM492.69,174.05l-21-9c1.52,2.53,4.51,13.29,6.68,13.85,1.02.26,2.58-.89,3.39-.38.62.39.66,2.13,1.04,2.42.77.59,11.27-4.99,9.88-6.89ZM25.69,166.04l-4.01.48-.76.98.92,7.41,3.85,1.13v-10ZM70.64,184.01c5.64-17.26-6.21-18.56-19.95-17.96l15.29,16.68,4.66,1.27ZM92.19,167.04c-5.09.36-10.81,0-16,0-2.83,0-6.81,18.25.02,18.76l7.41-8.12-7.92-9.64,9.49,9,10.5-10.5c-.83-1.65-2.84.46-3.5.5ZM372.69,186.04v-16.5c0-.2-2.28-2.12-2.14-3.42-.42-.31-1.14.92-1.36.92h-14.5c2.14,6.94,13.19,12.92,18,19ZM393.69,167.04h-15.5c-.39,0-.92-1.99-2.48.5l9.34,8.43,8.64-8.93ZM117.69,167.04h-18l9.64,9.93c1.49.26,10.08-8.26,8.36-9.93ZM141.69,167.04h-17l8.49,10,8.51-10ZM162.19,167.04h-14.5l8.49,7.82,7.02-5.82-1.01-2ZM188.19,167.04h-16.5l7.5,8.98,7.5-5.97-5.93,7.35,8.42,7.65c1.19.02,3.55-16.74-.99-18.01ZM209.69,167.04h-16l18.99,19c1.04-.78,1.4-11.61,1.03-13.51-.53-2.74-3.97-2.48-4.02-5.49ZM234.69,167.04h-17c-.33,3.98,4.17,6.35,6.64,8.93l10.36-8.93ZM251.05,174.41c1.04-1.09,8.53-5.54,5.66-6.89l-16.02.53,8.5,8.97c.58,0,1.26-2.11,1.85-2.61ZM292.69,167.04c-15.27,1.13-35.93-6.49-29.1,18.42,2.46,3.44,9.64-6.02,13.1-5.41-2.07,2.95-6.02,4.58-8.74,6.7-.69.54-2.7.7-1.26,2.27,1.98,2.17,14.46.01,17.46-.03,12.84-.19,25.71.23,38.54.04,1.63-3.7-27.41-16.85-27.02-21.99l-9.98,5.99,7-5.99ZM326.44,171.27c-.17-.29-4.57-4.12-5.23-4.25l-23.51.02,26.54,19c3.79.25,2.74-13.86,2.2-14.78ZM346.19,167.04h-14.5c-.49,3.6-4.17,2.67-4,7.48-1.38,13.35,3.13,14.77,9.92,3.87l-6.92-8.34c4.28-.75,5.96,6.53,9.35,5.8l7.16-6.81-1.01-2ZM417.69,169.04c-1.44.43-3.3-2-3.5-2h-15.5l7.02,8.99,8.97-6.99-6.99,8.98,8,6.53,2-1.01v-14.5ZM49.69,168.04v14c0,.37,5.97,1.62,3,4.99,4.52-1.47,12.21,2.95,14.98-.49l-17.98-18.5ZM96.69,168.04l-9.98,9.5,7.5,7.5,2.49-1.5v-15.5ZM97.7,168.04c.75,11.16-2.86,25.8,10.97,10.5l-10.97-10.5ZM145.69,168.04v16c2.36,1.3,10.38-7.44,10-7.98-4.32-1.02-6.21-5.97-10-8.02ZM144.69,169.04c-1.25-1.41-8.67,7.56-9.98,8.49l7.51,7.48c3.82.82,2.08-13.32,2.46-15.98ZM200.69,178.04c-.57-3.32-5.25-6.38-7.51-8.99h-1.49s0,16.99,0,16.99c1.19-.53,7.09-9.51,9-8-.57,3.67-6.16,5.44-5.56,9.01,1.65,3.24,11.22,2.06,14.59,1.52,2.87-3.52-7.87-9.17-9.03-10.53ZM235.69,169.04c-4.14.98-6.74,5.93-9.98,8.5,3.25,2.57,5.85,7.52,9.98,8.5v-17ZM247.69,179.02c.92-1.3-8.93-11.69-10.99-9.97,1.06,2.36-.06,17.03,2.5,16.97l8.49-7ZM343.69,182.04c-1.16-.77-3.51-.88-4.5-2.98-2.11,3.97-7.3,6.11-6.5,10.98h14.5l1.48-1.5c-2.77-1.87-3.53-4.15-4.98-6.5,1.38.92,5.96,5.96,6.99,5,.78-2.9,2.41-17.38-.51-17.99l-9.42,8.63c-.2,1.22,2.11,3.02,2.93,4.36ZM352.69,169.04v16.5l2,1.01,7.04-8.01c0-2.01-7.05-7.94-9.04-9.5ZM374.69,186.04c2.18.19,9.15-7.1,8.93-8.36l-8.93-8.64v17ZM395.69,169.04c-1.21-1.26-8.67,6.79-8.85,8.67l7.36,8.32c2.84-5.59.06-11.43,1.49-16.99ZM396.69,169.04v16c3.77-.67,6.08-5.24,8.98-7.5l-8.98-8.5ZM418.69,185.04c3.77-1.44,6.15-4.81,8.98-7.5l-8.98-8.5v16ZM121.69,170.04c-1.99-2.06-9.29,7.21-10.98,8.5l7.52,7.47c6.11-2.07,1.96-10.97,3.46-15.97ZM122.7,170.04c.32,2.29-1.06,15.03,1.49,14.97l7.48-7.48c-1.22-.89-7.76-8.87-8.98-7.49ZM166.69,170.04c-4.1-.38-6.12,4.25-8.98,6.5l8.98,8.5v-15ZM168.7,185.04l8.91-7.64c.23-1.37-5.91-7.36-7.41-7.4l-2.13,1.53.63,13.51ZM214.7,170.04c.32,2.29-1.06,15.03,1.49,14.97l7.48-7.48c-1.22-.89-7.76-8.87-8.98-7.49ZM261.7,171.05c-5.34-2.15-7.25,3.55-10.99,6.49l8.48,8.48c2.84.06.36-12.71,2.5-14.97ZM502.69,183.04c-8.29-7.49-8.14-7.15-17.98-.5-.03,1.02,6.26,2.76,7.36,2.43,2.52-.77,1.04-6.27,3.61-6.92l-3.99,21.99,14.99-8.5-4.99-1.51,3.99-1c-1.36-1.79-2.03-4.21-3-5.99,2.04,1.85,3.49,4.63,5.99,5l-.99-13h-9c.06,3.1,2.41,5.11,4,8.01ZM522.69,176.04c-4.71-.05-9.45.47-13.99-1l1,14c4.08-3.38,7.72-7.2,11.71-10.71.68-.6,1.92.06,1.27-2.28ZM149.69,188.04h15c-.62-4.82-5.83-6.44-8.5-9.98-2.67,3.17-7.35,5.22-6.5,9.98ZM179.19,178.06c-2.52,2.81-12.63,10.04-4.05,11.03,16.66,1.93,14.01-2.47,4.05-11.03ZM90.34,183.39c-1.27-1.37-3.97-2.4-5.14-4.34l-8.5,8.97c5.4-.98,10.59-.65,15.99,0,.69-.62-1.71-3.94-2.35-4.64ZM141.69,188.03c.65-.48-5.83-8.66-8.5-8.65l-6.52,6.19,1.48,3.22,13.54-.76ZM233.69,189.04c-1.74-4.1-5.44-6.96-8.64-9.93-1.22-.21-10.13,7.41-7.36,9.93h16ZM241.69,189.03l14.52.66,1.52-2.15-8.55-8.26c-1.48,1.26-9.33,7.87-7.49,9.75ZM391.7,189.03c.84-4.76-3.83-6.82-6.5-9.98l-6.51,8.53c.08,4.98,10.02.3,13.01,1.45ZM413.59,188.95c2.79-1.71-3.87-9.74-6.42-9.96-1.98.83-7.6,7.12-6.48,10.05l12.9-.09ZM435.7,190.03c.8-5.1-4.68-7.47-7.5-10.98-12.01,9.77-4.61,11.91,7.5,10.98ZM457.69,189.03c1.49-1.68-6.13-8.66-7.5-9.97l-5.49,10.98,13-1ZM117.69,188.04l-8.36-7.93c-.74.13-7.04,6.11-6.64,7.93h15ZM369.7,190.03c.84-4.76-3.83-6.82-6.5-9.98-1.63,2.15-7.31,5.69-6.49,8.45l1.66,1.37,11.34.16ZM492.66,187.12l-8.97-2.07,6.5,11.99,2.46-9.91ZM52.68,197.04c-1.2-4.37,2.17-5.51,3-9-6.97,1.62-11.25,5.06-3,9ZM475.69,188.05l-10,1.49,6.98,4.51,3.02-5.99ZM116.59,189.13c-.88-.56-9.3.72-11.38.94-1.46.15-2.93-.88-2.51,1.46l7.49,7.5c1.46-1.84,9.72-7.8,6.4-9.89ZM140.69,190.04h-14c-1.58,2.57,6.37,8.1,7.36,7.93,1.08-.88,7.9-6.82,6.64-7.93ZM153.08,194.64c1.32,1.15,2.95,1.97,4.11,3.35l6.48-6.44c.05-2.59-15.7-1.96-13.98.48,1.98-.15,2.41,1.76,3.39,2.62ZM186.69,190.05c-1.8-.05-16.88-1.01-13.99,2.97l14.98,13.02v-14s-7.99,5.99-7.99,5.99l7-7.98ZM203.69,198.03c.38-2.25,7.86-6.05,5.02-7.51l-13.02-.47,13.5,13.99.49-9.99-5.99,3.99ZM477.68,190.04c-1.75-1.8-4.1,4.96-3.92,5.9l7.92,5.1-4-11ZM232.69,191.04h-14c.39,3.41,4.52,5.43,6.5,7.98l7.5-7.98ZM257.69,191.04h-14.5l-1.01,2,15.5,15v-14s-7.99,5.99-7.99,5.99l8-8.99ZM273.69,193.04c6.69,1.09,19.13,6.73,23.46,6.88,2.33.08,19.18-5.36,22.34-6.62,1.52-.61,2.7.58,2.19-2.25h-49.99c-.19.85,1.28,1.52,1.99,1.99-2-.33-3.97-.88-5.99-1v17s26.99-8.01,26.99-8.01c.29-1.34-1.04-1.13-2-1.46-6.18-2.14-13.68-2.98-18.99-6.52ZM340.7,201.04l7.97-7.5c-1.73-2.55-4.02-2.81-6.98-2.5l-.99,10ZM358.35,191.2c-.98.31-1.9,1.22-1.65,2.32l6.49,6.5,6.48-6.48c.03-2.85-9.18-3.01-11.32-2.34ZM381.26,191.14c-4.43,2.35,4.1,5.97,4.93,8.88l6.5-6.5c.58-4.14-9.36-1.97-11.42-2.38ZM408.68,200.03l6-7.49c.04-2.09-12.75-2.79-13.96,1l7.96,6.49ZM428.71,200.03l7.96-6.49c-2.98-4.14-8.71-2.57-12.98-1.49l5.01,7.98ZM444.69,193.54v14.5c8.18-10.68,10.04-9.67,18.5,0l-1.51-14.99c-6.76.71-5.31,13.87-15.99,0l7.36,4.91,5.64-6.91c-3.23.31-12.91-1.41-14,2.49ZM466.68,206.03l4.92-9.5-7.9-5.49c-.05.73.4,15.51,2.98,14.99ZM101.69,193.04v14l6.93-6.64-6.93-7.36ZM141.68,206.04l-.49-12.99-6.46,7.39,6.95,5.61ZM201.69,198.06l-5.98-5.02v12l5.98-5.02v-1.96ZM117.68,206.04l-.49-12-5.47,5.59,5.96,6.41ZM150.68,206.03c.44-2.94,3.22-4.44,5-6.49l-5.97-5.5c.54,1.9-1.3,12.7.98,11.99ZM163.68,205.03c-.51-1.79,1.26-11.7-.98-10.99l-4,5.49,4.97,5.49ZM171.69,204.03l5.98-4.49-5.49-5.5-.49,9.99ZM217.7,206.04l5.92-5.64-5.43-6.36-.49,11.99ZM233.69,194.05c-1.35-1.08-5.97,4.49-6.93,5.63l4.94,7.35,1.99-12.98ZM323.69,194.04l-24.01,6.5,24.01,8.5v-15ZM126.7,206.04l4.86-5.69-4.37-5.31-.49,10.99ZM244.13,197.62c-1.15-1.01-1.17-3.09-3.43-2.57v12.99s6.95-6.56,6.95-6.56c.43-1.06-2.67-3.12-3.52-3.86ZM370.68,208.03v-12.99s-7.51,6.75-7.51,6.75l-6.47-5.75v10s5.99-3.99,5.99-3.99l-6,7.98h13s-6-7.98-6-7.98c1.87-1.67,5.61,5.47,6.99,5.99ZM378.7,207.04l5.92-5.64-5.43-6.36-.49,11.99ZM392.68,206.04l1-11-5.92,5.64,4.92,5.36ZM414.68,207.04l-.48-11.99-5.46,6.49,5.95,5.5ZM422.7,208.04l5.96-6.5-5.47-6.5-.49,13ZM334.69,211.04h14l-7-7.99,6.99,4.99v-12c-4.85,4.95-8.64,7.37-15.98,7.01v5.99s7.99-5.99,7.99-5.99l-6,7.99ZM405.1,200.68c-1.38-1.52-2.21-3.9-4.4-4.64l1,10,4.98-4.5c.33-.76-1.06-.26-1.59-.85ZM436.68,207.04l-.49-10.99-5.49,5.5,5.97,5.5ZM483.69,204.05c-4.35-.7-6.95-4.73-10.5-6.99l-6.5,11.97,16.99-4.98ZM172.69,209.04h14c-.59-3.93-5.66-5.32-7.5-8.98-1.24.82-7.63,7.99-6.5,8.98ZM117.69,209.04l-7.5-7.98c-1.98,2.55-6.11,4.57-6.5,7.98h14ZM163.68,209.04c1.21-1.45-5.5-6.63-6.49-7.98l-6.49,6.49,12.98,1.49ZM195.69,209.04h14c.72-3.73-4.62-5.07-6.64-7.93-1.49-.26-8.43,6.99-7.36,7.93ZM462.69,210.03l-9.5-8.95-8.5,9.95,18-1ZM126.69,209.04h15l-8.36-6.93-6.64,6.93ZM231.69,209.04l-7.36-6.93-6.64,6.93h14ZM272.69,209.04h44l-19.47-7.03-24.53,7.03ZM378.69,210.04h14l-6.5-7.98-7.5,7.98ZM255.69,209.03l-6.63-5.92-6.36,5.44c4.47-.24,8.69,2.22,12.99.48ZM414.69,209.05c-3.34-.63-5.04-3.98-7.49-6l-5.5,6.97c2.01-.56,13.69,1.34,12.99-.98ZM435.69,210.03c1.28-1.1-4.66-6.02-5.52-6.97l-6.47,6.48c3.72,3,7.83.18,11.99.49ZM294.7,213.04c-4.58.42-11.19-1.72-14.01,2.99,4.75.88,9.74-1.52,13.99.01v-3ZM309.69,214.05l-11.99-1.01v2.99c2.03-.68,14.51,1.87,11.99-1.98ZM364.7,214.03h-9.01v6.01h9.01v-6.01ZM395.69,214.04h-28v6.01c9.49-.71,18.54-.71,28.01,0v-6.01ZM413.69,214.04h-14v6h14v-6ZM395.7,224.03c-4.17-.48-9.52,1.58-12.51-1.99l-1.91,2.09-24.58-.08,2.63,2.92,4.37-1.92-1.86,3.68,2.37,3.31,1.98-6.99,1.51,7h4.02s0,2.99,0,2.99h-4.02s-.06,9.39-.06,9.39l4.07,3.11-4,.5v9.99s7.45.07,7.45.07l3.04-3.07.56,2.9,6.39.17,1.05-3.11,3.5.04-1,2.98h7.99c-1.21-4.11.54-8.8-3.98-10.48,3.76-3.44,3.17-5.92,3.05-10.96l-2.93-.65-.16-3.41,2.92-.55.11-7.95ZM414.69,233.03l-1.49-8.99-5.49,4.5,6.98,4.49ZM424.7,224.03h-8.01s1.11,6.89,1.11,6.89l6.9.12v-7.01ZM400.69,235.05c3.61,5.75,9.34,3.99,10.99-2.01l-10.99,2.01ZM325.69,236.04v20l13-8.99-12,10.99h24l-6.49-7.01,8.49,7.01v-22l-4,1.99,2-2.98c-7.45-1.05-14.8,2.34-22,0l9.49,11-12.49-10.01ZM414.68,245.04c.44-1.25-.33-9.35-1.48-8.99l-5.49,4.49,6.97,4.5ZM364.68,244.04l-.48-6.99-8.5,8.98h8s-2.99-4.99-2.99-4.99l3.98,3ZM413.69,246.06c-5.65-2.89-7.36-6.42-13-.51l9.99.5c.72,3.95-6.71,1.23-8.99,2.01l4.64,3.88,7.35-5.87ZM364.69,247.05l-8.99.49,4.5,4.49,4.5-4.97ZM414.69,256.03l-1.5-6.98-4.49,3,.63,2.06,5.36,1.92ZM424.7,249.04h-7.01s0,9,0,9h7.01s0-4,0-4c-3.57-.95-2.7,1.79-4.99,2.99v-6.5s1.63,1.51,1.63,1.51l3.35-.02v-2.99ZM412.69,259.03l-6.51-4.74-4.48,2.76c2.09,2.61,7.87,1.81,10.99,1.98ZM411.69,260.05l-10.99.49,5.51,4.25,5.49-4.73ZM336.69,265.05c-3.88-.89-6.69-3.85-10.99-3.02v8c1.85.03,9.95-2.99,10.99-4.98ZM352.69,262.03c-4.49-.72-7.89,2.36-11.99,3.5,1.77,1.4,10.54,6.91,11.99,5.51v-9.01ZM414.69,262.04c-2.79-.28-4.99,1.86-6.98,3.49l5.97,3.5,1.01-6.99ZM424.7,262.03h-7.01s.02,9,.02,9l7-.99v-8.01ZM451.69,262.04h-21.5l-1.5,1.5v16.5l9.98-8.5c-2.54-2.04-5.32-3.99-7.7-6.21-.59-.55-2.94-.64-.77-2.3l9.97,7.77,10.52-6.75-9,7.49,11,8.5-1-17.99ZM329.69,271.04h17l-8.5-4.66-8.5,4.66ZM450.69,282.04l-10.33-8.86-11.67,8.86h22ZM350.69,275.04h-23l12,10.99-13.5-9.99c-1.66.81.5,2.93.5,3.5v16.5l11.49-9.01-8.49,9c6.48,2,13.36.36,19.99,0l-9.49-9,12.49,9.01v-20l-11.99,9,9.99-10ZM386.69,275.04h-16l7.5,10.98,8.5-10.98ZM401.69,283.04c15.91,5.07-4.79,11.46-8.99,16.99l30.99,1-14.49-12,15.49,10.01v-22c-2.88.11-14.6,11.21-15.99,9.99-1.74-1.52,1.35-2.18,1.89-2.57,4.08-3,9.23-5.12,12.11-9.41l-4.94.1c-.18,7.4-4.15-.02-4.76-.16-2.94-.67-7.85,2.47-11.64-.02l-3.66,3.57c1.11,1.94,4.73,2.05,4,4.5-3.76-2.09-7.4-3.91-10.51-6.99-1.66.81.51,2.93.51,3.49v18.5l13.99-9.02c.77-1.08-3.08-4.75-3.99-5.98ZM369.69,278.04v20l7.83-10.51-7.83-9.49ZM387.7,286.01l-.51-7.97-7.34,9.68,7.34,10.31c2.63-5.75-4.43-5.09-2.57-11.45l3.07-.57ZM428.69,283.04v16l11-6.99-10,8.98,20.01-.5-21.01-17.49ZM449.69,283.04h-18l8.66,6.83c1.36.11,8.54-4.99,9.34-6.83ZM361.68,284.04c-1.45-1.37-5.54,5.52-4.98,5.99l7.99,1-3.01-6.99ZM452.69,284.04l-10.98,7.49,9.49,7.5c2.42-4.75,0-10,1.49-14.99ZM379.67,290.04c-1.89-1.32-9.71,10.26-8.97,10.99l14.99-1.01-6.02-9.98ZM422.69,305.04h-29c2.16,4.02,13.49,8.77,13.05,13.45-.36,3.84-11.78,8.9-14.05,12.54l28.99-.49c-2.08-3.25-15.1-10.04-13.94-13.87l12.94-8.62-11,10.46,14.99,11.53v-23.99s-3,.99-3,.99l1-1.99ZM405.69,319.02c.54-3.02-8.84-8.36-11.07-10.4-1.13-.76-2.36-2.2-3.46-.58l-.45,20.99,14.99-10.01Z" fill="#db362e"/>
        <path d="M433.69,160.04c-1.52-1.58-4.08-3.01-5.5-4.98-1.34,1.95-4.11,3.45-5.5,4.98.42-.42,2.98-5.31,3.93-6.37l-5.92-7.63c4.23,4.09,10.94,8.56,12.99,14Z" fill="#db362e"/>
        <rect x="417.69" y="84.04" width="1" height="34" fill="#db362e"/>
        <path d="M385.6,247.94l-7.47-.84-.44-9.07c2.2.26,7.34-.83,8.57.97l-.66,8.93ZM384.7,240.03h-6.01s.94,5.57.94,5.57l5.06.44v-6.01Z" fill="#db362e"/>
    </g>
</svg>